<svg width="50" height="50" viewBox="0 0 50 50" fill="none" xmlns="http://www.w3.org/2000/svg">
<path d="M45.8337 25.4244V28.5931C45.8337 36.7181 45.8337 40.7827 43.392 43.3077C40.9503 45.8327 37.0232 45.8327 29.167 45.8327H20.8337C12.9774 45.8327 9.04824 45.8327 6.60866 43.3077C4.16908 40.7827 4.16699 36.7202 4.16699 28.5931V25.4244C4.16699 20.6556 4.16699 18.2723 5.25033 16.2973C6.32949 14.3202 8.30658 13.0952 12.2587 10.641L16.4253 8.0556C20.6024 5.46185 22.692 4.16602 25.0003 4.16602C27.3087 4.16602 29.3962 5.46185 33.5753 8.0556L37.742 10.641C41.6941 13.0952 43.6712 14.3202 44.7524 16.2973" stroke="#F3F3F3" stroke-width="3.13" stroke-linecap="round"/>
<path d="M20.7139 30.7148C20.7139 30.7148 22.4996 38.572 24.9996 38.572C27.4996 38.572 29.2853 30.7148 29.2853 30.7148" stroke="#F3F3F3" stroke-width="3.13" stroke-linecap="round"/>
</svg>
