<svg width="50" height="50" viewBox="0 0 50 50" fill="none" xmlns="http://www.w3.org/2000/svg">
<path d="M50 25C50 11.1929 38.8071 0 25 0C11.1929 0 0 11.1929 0 25C0 38.8071 11.1929 50 25 50C38.8071 50 50 38.8071 50 25Z" fill="#292929" fill-opacity="0.6"/>
<path fill-rule="evenodd" clip-rule="evenodd" d="M10.1415 40.518C13.5113 35.8502 18.9986 32.8125 25.1953 32.8125C31.2934 32.8125 36.7045 35.7543 40.0867 40.2961C36.2073 44.1227 30.8795 46.4844 25 46.4844C19.235 46.4844 14.0002 44.2137 10.1415 40.518ZM33.5938 20.1172C33.5938 24.9713 29.8337 28.9062 25.1953 28.9062C20.557 28.9062 16.7969 24.9713 16.7969 20.1172C16.7969 15.2631 20.557 11.3281 25.1953 11.3281C29.8337 11.3281 33.5938 15.2631 33.5938 20.1172Z" fill="#DADADA"/>
</svg>
